<!--
  Skipper. Reconciliation runner. Brown dog with a forward-facing
  cartoon head (ears up, prominent nose, big eyes - emoji 1F436
  vibe) and straight side-profile legs underneath the body. Always
  trots rightward.
  Hand-authored pixel art on a 32x32 grid scaled to 256x256.
  Palette: warm brown #8B5C3A, light brown belly #C19169,
           dark brown #5A3A20, navy outline #1B2A4E,
           muzzle cream #F5E6D0, nose black #1B1F2A,
           tongue pink #F4B6C0, tooth white #FFFFFF.
-->
<svg xmlns="http://www.w3.org/2000/svg" viewBox="0 0 32 32" width="256" height="256" shape-rendering="crispEdges" role="img" aria-label="Skipper the husky, reconciliation runner">
  <title>Skipper</title>
  <desc>Reconciliation runner. Brown dog trotting forward.</desc>

  <!-- ============================================================
       Front-facing head, top-left corner of the sprite.
       Big ears, big eyes, prominent muzzle/nose pointing at the
       viewer.
       ============================================================ -->

  <!-- Ears (two upright triangles, sticking up either side) -->
  <rect x="2"  y="3"  width="2" height="1" fill="#1B2A4E"/>
  <rect x="2"  y="4"  width="3" height="2" fill="#5A3A20"/>
  <rect x="3"  y="6"  width="3" height="1" fill="#5A3A20"/>
  <rect x="3"  y="5"  width="1" height="1" fill="#F4B6C0"/>

  <rect x="11" y="3"  width="2" height="1" fill="#1B2A4E"/>
  <rect x="10" y="4"  width="3" height="2" fill="#5A3A20"/>
  <rect x="9"  y="6"  width="3" height="1" fill="#5A3A20"/>
  <rect x="11" y="5"  width="1" height="1" fill="#F4B6C0"/>

  <!-- Head outline (rounded square) -->
  <rect x="3"  y="6"  width="9" height="1" fill="#1B2A4E"/>
  <rect x="2"  y="7"  width="1" height="6" fill="#1B2A4E"/>
  <rect x="12" y="7"  width="1" height="6" fill="#1B2A4E"/>
  <rect x="3"  y="13" width="9" height="1" fill="#1B2A4E"/>

  <!-- Head fill (brown) -->
  <rect x="3"  y="7"  width="9" height="6" fill="#8B5C3A"/>

  <!-- Forehead darker patch -->
  <rect x="4"  y="7"  width="7" height="1" fill="#5A3A20"/>

  <!-- Big round eyes (forward-facing) -->
  <rect x="4"  y="8"  width="2" height="2" fill="#1B1F2A"/>
  <rect x="9"  y="8"  width="2" height="2" fill="#1B1F2A"/>
  <!-- Eye highlights -->
  <rect x="4"  y="8"  width="1" height="1" fill="#FFFFFF"/>
  <rect x="9"  y="8"  width="1" height="1" fill="#FFFFFF"/>

  <!-- Cream muzzle (large, fills lower half of face) -->
  <rect x="4"  y="10" width="7" height="3" fill="#F5E6D0"/>

  <!-- Black nose (centered, prominent - the dog-emoji signature) -->
  <rect x="6"  y="10" width="3" height="2" fill="#1B1F2A"/>
  <rect x="6"  y="10" width="1" height="1" fill="#FFFFFF"/>

  <!-- Mouth + tongue -->
  <rect x="5"  y="12" width="1" height="1" fill="#1B1F2A"/>
  <rect x="9"  y="12" width="1" height="1" fill="#1B1F2A"/>
  <rect x="6"  y="12" width="3" height="1" fill="#F4B6C0"/>

  <!-- ============================================================
       Body (side profile, extending right from the head)
       Horizontal trunk; head joins at the left.
       ============================================================ -->

  <!-- Body outline -->
  <rect x="11" y="13" width="14" height="1" fill="#1B2A4E"/>
  <rect x="25" y="14" width="1"  height="6" fill="#1B2A4E"/>
  <rect x="11" y="20" width="14" height="1" fill="#1B2A4E"/>

  <!-- Body fill -->
  <rect x="11" y="14" width="14" height="3" fill="#8B5C3A"/>
  <!-- Lighter belly -->
  <rect x="11" y="17" width="14" height="3" fill="#C19169"/>

  <!-- Spine shading -->
  <rect x="13" y="14" width="11" height="1" fill="#5A3A20"/>

  <!-- ============================================================
       Tail (curled up over the back, brown with cream tip)
       ============================================================ -->
  <rect x="26" y="11" width="3" height="1" fill="#1B2A4E"/>
  <rect x="25" y="12" width="1" height="1" fill="#1B2A4E"/>
  <rect x="29" y="12" width="1" height="2" fill="#1B2A4E"/>
  <rect x="26" y="14" width="3" height="1" fill="#1B2A4E"/>
  <rect x="26" y="12" width="3" height="2" fill="#8B5C3A"/>
  <!-- Cream tail tip -->
  <rect x="28" y="11" width="1" height="1" fill="#F5E6D0"/>
  <rect x="28" y="13" width="1" height="1" fill="#F5E6D0"/>

  <!-- ============================================================
       Legs (4 STRAIGHT vertical legs, no bend, planted firmly)
       ============================================================ -->

  <!-- Front-left leg -->
  <rect x="12" y="21" width="1" height="6" fill="#1B2A4E"/>
  <rect x="13" y="21" width="2" height="6" fill="#8B5C3A"/>
  <rect x="15" y="21" width="1" height="6" fill="#1B2A4E"/>
  <rect x="13" y="27" width="2" height="1" fill="#1B2A4E"/>

  <!-- Front-right leg -->
  <rect x="17" y="21" width="1" height="6" fill="#1B2A4E"/>
  <rect x="18" y="21" width="2" height="6" fill="#8B5C3A"/>
  <rect x="20" y="21" width="1" height="6" fill="#1B2A4E"/>
  <rect x="18" y="27" width="2" height="1" fill="#1B2A4E"/>

  <!-- Hind-left leg -->
  <rect x="20" y="21" width="1" height="6" fill="#1B2A4E"/>
  <rect x="21" y="21" width="2" height="6" fill="#8B5C3A"/>
  <rect x="23" y="21" width="1" height="6" fill="#1B2A4E"/>
  <rect x="21" y="27" width="2" height="1" fill="#1B2A4E"/>

  <!-- Hind-right leg -->
  <rect x="22" y="21" width="1" height="6" fill="#1B2A4E"/>
  <rect x="23" y="21" width="2" height="6" fill="#8B5C3A"/>
  <rect x="25" y="21" width="1" height="6" fill="#1B2A4E"/>
  <rect x="23" y="27" width="2" height="1" fill="#1B2A4E"/>
</svg>
