<!--
  Frostbite the kraken. Killswitch  sleeps deep beneath the ice;
  emerges only on a Whiteout (full kill). Glowing aqua eyes signal
  the operator that something is on fire.

  Hand-authored pixel art, 32×32 logical grid.
  Palette: deep purple body #2B1B4A, midnight #110A28, glowing eyes
           #00D4FF, sucker beige #C7A8E0, accent magenta #5A2C7E.
-->
<svg xmlns="http://www.w3.org/2000/svg" viewBox="0 0 32 32" width="256" height="256" shape-rendering="crispEdges" role="img" aria-label="Frostbite the kraken, killswitch">
  <title>Frostbite the kraken</title>
  <desc>Killswitch character. Sleeps beneath the ice; emerges on a full kill (Whiteout).</desc>

  <!-- Mantle (top of head) -->
  <rect x="11" y="3"  width="10" height="1" fill="#2B1B4A"/>
  <rect x="10" y="4"  width="12" height="1" fill="#2B1B4A"/>
  <rect x="9"  y="5"  width="14" height="1" fill="#2B1B4A"/>
  <rect x="8"  y="6"  width="16" height="9" fill="#2B1B4A"/>

  <!-- Mantle highlight (lighter purple stripe) -->
  <rect x="11" y="6"  width="10" height="1" fill="#5A2C7E"/>

  <!-- Glowing eyes -->
  <rect x="11" y="9"  width="3"  height="3" fill="#00D4FF"/>
  <rect x="18" y="9"  width="3"  height="3" fill="#00D4FF"/>
  <!-- Pupil slit (vertical) -->
  <rect x="12" y="10" width="1"  height="2" fill="#110A28"/>
  <rect x="19" y="10" width="1"  height="2" fill="#110A28"/>

  <!-- Mouth (jagged) -->
  <rect x="13" y="13" width="6"  height="1" fill="#110A28"/>
  <rect x="14" y="14" width="1"  height="1" fill="#110A28"/>
  <rect x="16" y="14" width="1"  height="1" fill="#110A28"/>
  <rect x="18" y="14" width="1"  height="1" fill="#110A28"/>

  <!-- Tentacles emerging downward (8 of them, alternating depths) -->
  <!-- Outer left -->
  <rect x="4"  y="16" width="2"  height="4" fill="#2B1B4A"/>
  <rect x="3"  y="20" width="2"  height="4" fill="#2B1B4A"/>
  <rect x="2"  y="24" width="2"  height="3" fill="#2B1B4A"/>

  <rect x="7"  y="16" width="2"  height="6" fill="#2B1B4A"/>
  <rect x="7"  y="22" width="2"  height="3" fill="#2B1B4A"/>

  <rect x="10" y="16" width="2"  height="8" fill="#2B1B4A"/>
  <rect x="11" y="24" width="2"  height="2" fill="#2B1B4A"/>

  <rect x="13" y="16" width="2"  height="10" fill="#2B1B4A"/>

  <!-- Center fill (continues body) -->
  <rect x="15" y="15" width="3"  height="2" fill="#2B1B4A"/>

  <rect x="17" y="16" width="2"  height="10" fill="#2B1B4A"/>

  <rect x="20" y="16" width="2"  height="8" fill="#2B1B4A"/>
  <rect x="19" y="24" width="2"  height="2" fill="#2B1B4A"/>

  <rect x="23" y="16" width="2"  height="6" fill="#2B1B4A"/>
  <rect x="23" y="22" width="2"  height="3" fill="#2B1B4A"/>

  <rect x="26" y="16" width="2"  height="4" fill="#2B1B4A"/>
  <rect x="27" y="20" width="2"  height="4" fill="#2B1B4A"/>
  <rect x="28" y="24" width="2"  height="3" fill="#2B1B4A"/>

  <!-- Suckers (random beige dots on a few tentacles) -->
  <rect x="4"  y="18" width="1"  height="1" fill="#C7A8E0"/>
  <rect x="11" y="20" width="1"  height="1" fill="#C7A8E0"/>
  <rect x="14" y="22" width="1"  height="1" fill="#C7A8E0"/>
  <rect x="20" y="19" width="1"  height="1" fill="#C7A8E0"/>
  <rect x="27" y="22" width="1"  height="1" fill="#C7A8E0"/>
</svg>
