<!--
  Tusk the mammoth. Operator's gitignored private strategies.
  Visible only on the maintainer's local build (extinct from public
  view). Shaggy fur, large tusks, big personality.

  Hand-authored pixel art, 32×32 logical grid.
  Palette: shaggy brown #6B4624, accent rust #8C5C2E, tusk cream
           #F1E5C3, dark eye #1B1F2A, navy outline #1B2A4E.
-->
<svg xmlns="http://www.w3.org/2000/svg" viewBox="0 0 32 32" width="256" height="256" shape-rendering="crispEdges" role="img" aria-label="Tusk the mammoth, private strategies">
  <title>Tusk the mammoth</title>
  <desc>Operator's gitignored private strategies. Visible only on the maintainer's local build.</desc>

  <!-- Shaggy head/body crown -->
  <rect x="9"  y="3"  width="14" height="1" fill="#6B4624"/>
  <rect x="8"  y="4"  width="16" height="1" fill="#6B4624"/>

  <!-- Head outline -->
  <rect x="7"  y="5"  width="18" height="1" fill="#1B2A4E"/>
  <rect x="6"  y="6"  width="1"  height="11" fill="#1B2A4E"/>
  <rect x="25" y="6"  width="1"  height="11" fill="#1B2A4E"/>
  <rect x="7"  y="17" width="18" height="1" fill="#1B2A4E"/>

  <!-- Head fill -->
  <rect x="7"  y="6"  width="18" height="11" fill="#6B4624"/>

  <!-- Shaggy texture (rust streaks) -->
  <rect x="8"  y="7"  width="2"  height="2" fill="#8C5C2E"/>
  <rect x="14" y="6"  width="2"  height="2" fill="#8C5C2E"/>
  <rect x="20" y="7"  width="2"  height="2" fill="#8C5C2E"/>
  <rect x="9"  y="14" width="3"  height="1" fill="#8C5C2E"/>
  <rect x="20" y="14" width="3"  height="1" fill="#8C5C2E"/>

  <!-- Eyes -->
  <rect x="10" y="9"  width="2"  height="2" fill="#1B1F2A"/>
  <rect x="20" y="9"  width="2"  height="2" fill="#1B1F2A"/>
  <rect x="10" y="9"  width="1"  height="1" fill="#F1E5C3"/>
  <rect x="20" y="9"  width="1"  height="1" fill="#F1E5C3"/>

  <!-- Trunk (curved down then up) -->
  <rect x="14" y="12" width="4"  height="2" fill="#6B4624"/>
  <rect x="14" y="14" width="2"  height="6" fill="#6B4624"/>
  <rect x="13" y="20" width="3"  height="1" fill="#6B4624"/>
  <rect x="13" y="21" width="1"  height="1" fill="#6B4624"/>

  <!-- Trunk shading -->
  <rect x="15" y="14" width="1"  height="6" fill="#8C5C2E"/>

  <!-- Tusks (big, curving outward) -->
  <rect x="11" y="13" width="1"  height="4" fill="#F1E5C3"/>
  <rect x="10" y="14" width="1"  height="3" fill="#F1E5C3"/>
  <rect x="9"  y="16" width="1"  height="2" fill="#F1E5C3"/>

  <rect x="20" y="13" width="1"  height="4" fill="#F1E5C3"/>
  <rect x="21" y="14" width="1"  height="3" fill="#F1E5C3"/>
  <rect x="22" y="16" width="1"  height="2" fill="#F1E5C3"/>

  <!-- Body / shoulders -->
  <rect x="6"  y="18" width="20" height="1" fill="#1B2A4E"/>
  <rect x="6"  y="19" width="20" height="6" fill="#6B4624"/>
  <rect x="5"  y="19" width="1"  height="6" fill="#1B2A4E"/>
  <rect x="26" y="19" width="1"  height="6" fill="#1B2A4E"/>
  <rect x="6"  y="25" width="20" height="1" fill="#1B2A4E"/>

  <!-- Shaggy underside -->
  <rect x="8"  y="22" width="3"  height="3" fill="#8C5C2E"/>
  <rect x="21" y="22" width="3"  height="3" fill="#8C5C2E"/>

  <!-- Legs -->
  <rect x="9"  y="26" width="3"  height="2" fill="#6B4624"/>
  <rect x="20" y="26" width="3"  height="2" fill="#6B4624"/>
</svg>
