<!--
  Pole the polar bear (Captain). The operator's avatar.
  Hand-authored pixel art, 32×32 logical grid, scaled to 256×256.
  Palette: ice white #ECF6FF, navy outline #1B2A4E, snout pink #F4B6C0,
           captain hat navy #1B2A4E + gold #F0C24A.
-->
<svg xmlns="http://www.w3.org/2000/svg" viewBox="0 0 32 32" width="256" height="256" shape-rendering="crispEdges" role="img" aria-label="Pole the polar bear, Captain">
  <title>Pole the polar bear (Captain)</title>
  <desc>The operator's avatar  a stylized polar bear with a navy captain's cap, presiding over the trading-desk pyramid.</desc>

  <!-- Captain's hat brim (black) -->
  <rect x="9"  y="5"  width="14" height="1" fill="#1B2A4E"/>
  <!-- Hat body -->
  <rect x="11" y="3"  width="10" height="2" fill="#1B2A4E"/>
  <rect x="12" y="2"  width="8"  height="1" fill="#1B2A4E"/>
  <!-- Hat gold band -->
  <rect x="9"  y="6"  width="14" height="1" fill="#F0C24A"/>
  <!-- Hat anchor emblem (gold dot) -->
  <rect x="15" y="3"  width="2"  height="1" fill="#F0C24A"/>

  <!-- Head outline (rounded square) -->
  <rect x="8"  y="7"  width="16" height="1" fill="#1B2A4E"/>
  <rect x="7"  y="8"  width="1"  height="9" fill="#1B2A4E"/>
  <rect x="24" y="8"  width="1"  height="9" fill="#1B2A4E"/>
  <rect x="8"  y="17" width="16" height="1" fill="#1B2A4E"/>

  <!-- Head fill -->
  <rect x="8"  y="8"  width="16" height="9" fill="#ECF6FF"/>

  <!-- Ears -->
  <rect x="9"  y="6"  width="1"  height="1" fill="#1B2A4E"/>
  <rect x="22" y="6"  width="1"  height="1" fill="#1B2A4E"/>
  <rect x="8"  y="7"  width="2"  height="1" fill="#ECF6FF"/>
  <rect x="22" y="7"  width="2"  height="1" fill="#ECF6FF"/>

  <!-- Eyes -->
  <rect x="11" y="11" width="2"  height="2" fill="#1B2A4E"/>
  <rect x="19" y="11" width="2"  height="2" fill="#1B2A4E"/>
  <!-- Eye highlights -->
  <rect x="11" y="11" width="1"  height="1" fill="#ECF6FF"/>
  <rect x="19" y="11" width="1"  height="1" fill="#ECF6FF"/>

  <!-- Snout -->
  <rect x="13" y="13" width="6"  height="3" fill="#F8FBFF"/>
  <rect x="13" y="14" width="1"  height="1" fill="#1B2A4E"/>
  <rect x="18" y="14" width="1"  height="1" fill="#1B2A4E"/>
  <!-- Nose -->
  <rect x="15" y="14" width="2"  height="1" fill="#1B2A4E"/>
  <!-- Mouth -->
  <rect x="14" y="15" width="4"  height="1" fill="#F4B6C0"/>

  <!-- Body fill (peeks below head) -->
  <rect x="9"  y="18" width="14" height="6" fill="#ECF6FF"/>
  <rect x="8"  y="18" width="1"  height="6" fill="#1B2A4E"/>
  <rect x="23" y="18" width="1"  height="6" fill="#1B2A4E"/>
  <rect x="9"  y="24" width="14" height="1" fill="#1B2A4E"/>

  <!-- Captain's collar (gold) -->
  <rect x="11" y="18" width="10" height="1" fill="#F0C24A"/>
  <rect x="14" y="19" width="4"  height="1" fill="#1B2A4E"/>

  <!-- Paws (peeking out from sides) -->
  <rect x="8"  y="20" width="1"  height="3" fill="#ECF6FF"/>
  <rect x="23" y="20" width="1"  height="3" fill="#ECF6FF"/>
</svg>
