<!--
  Pole the Polar Bear. Sat side-profile bear, facing right, with a
  cyan scarf around his neck. No hat. Hand-authored pixel art on a
  32x32 grid scaled to 256x256.
  Palette: ice white #ECF6FF, navy outline #1B2A4E, snout cream #F8FBFF,
           scarf cyan #50D2C2 + dark cyan #2BA694, nose pink #F4B6C0,
           soft shadow #D8E5F5.
-->
<svg xmlns="http://www.w3.org/2000/svg" viewBox="0 0 32 32" width="256" height="256" shape-rendering="crispEdges" role="img" aria-label="Pole the Polar Bear">
  <title>Pole the Polar Bear</title>
  <desc>The operator's avatar -- a side-profile sat polar bear with a cyan scarf, watching the camp.</desc>

  <!-- ============================================================
       Ear (single, on top of head; side profile)
       ============================================================ -->
  <rect x="19" y="4"  width="3" height="1" fill="#1B2A4E"/>
  <rect x="18" y="5"  width="1" height="2" fill="#1B2A4E"/>
  <rect x="22" y="5"  width="1" height="2" fill="#1B2A4E"/>
  <rect x="19" y="5"  width="3" height="2" fill="#ECF6FF"/>
  <rect x="20" y="6"  width="1" height="1" fill="#F4B6C0"/>

  <!-- ============================================================
       Head outline (rounded, slightly elongated)
       ============================================================ -->
  <rect x="18" y="7"  width="6"  height="1" fill="#1B2A4E"/>
  <rect x="17" y="8"  width="1"  height="1" fill="#1B2A4E"/>
  <rect x="24" y="8"  width="1"  height="1" fill="#1B2A4E"/>
  <rect x="16" y="9"  width="1"  height="3" fill="#1B2A4E"/>
  <rect x="25" y="9"  width="1"  height="2" fill="#1B2A4E"/>
  <!-- Snout extends right, lower section -->
  <rect x="26" y="11" width="1"  height="3" fill="#1B2A4E"/>
  <rect x="27" y="13" width="1"  height="2" fill="#1B2A4E"/>
  <rect x="22" y="15" width="5"  height="1" fill="#1B2A4E"/>
  <rect x="17" y="14" width="5"  height="1" fill="#1B2A4E"/>

  <!-- Head fill (white) -->
  <rect x="18" y="8"  width="6"  height="1" fill="#ECF6FF"/>
  <rect x="17" y="9"  width="8"  height="2" fill="#ECF6FF"/>
  <rect x="17" y="11" width="9"  height="3" fill="#ECF6FF"/>
  <rect x="22" y="14" width="5"  height="1" fill="#F8FBFF"/>

  <!-- Eye (single, side profile) -->
  <rect x="20" y="10" width="1" height="2" fill="#1B2A4E"/>
  <rect x="20" y="10" width="1" height="1" fill="#FFFFFF"/>

  <!-- Snout/nose tip -->
  <rect x="27" y="12" width="1" height="1" fill="#1B2A4E"/>
  <rect x="26" y="13" width="2" height="1" fill="#F8FBFF"/>
  <rect x="25" y="14" width="2" height="1" fill="#F8FBFF"/>

  <!-- Mouth -->
  <rect x="24" y="14" width="1" height="1" fill="#1B2A4E"/>
  <rect x="22" y="13" width="2" height="1" fill="#F4B6C0"/>

  <!-- ============================================================
       Scarf (cyan, wraps around neck and a tail trails left)
       ============================================================ -->
  <!-- Main scarf body -->
  <rect x="14" y="15" width="11" height="1" fill="#2BA694"/>
  <rect x="13" y="16" width="13" height="2" fill="#50D2C2"/>
  <rect x="13" y="18" width="13" height="1" fill="#2BA694"/>
  <!-- Scarf knot on the left side -->
  <rect x="11" y="17" width="3"  height="3" fill="#50D2C2"/>
  <rect x="11" y="17" width="3"  height="1" fill="#2BA694"/>
  <rect x="11" y="20" width="3"  height="1" fill="#2BA694"/>
  <!-- Scarf tail trailing down-left (a few pixels of fringe) -->
  <rect x="9"  y="20" width="2"  height="2" fill="#50D2C2"/>
  <rect x="9"  y="22" width="2"  height="1" fill="#2BA694"/>
  <rect x="10" y="23" width="1"  height="2" fill="#50D2C2"/>

  <!-- ============================================================
       Body (sat side profile, big round haunches on the left,
       chest curving down on the right)
       ============================================================ -->
  <!-- Body outline -->
  <rect x="6"  y="17" width="1"  height="1" fill="#1B2A4E"/>
  <rect x="5"  y="18" width="1"  height="2" fill="#1B2A4E"/>
  <rect x="4"  y="20" width="1"  height="4" fill="#1B2A4E"/>
  <rect x="3"  y="24" width="1"  height="2" fill="#1B2A4E"/>
  <rect x="4"  y="26" width="2"  height="1" fill="#1B2A4E"/>
  <rect x="6"  y="27" width="11" height="1" fill="#1B2A4E"/>
  <rect x="17" y="26" width="2"  height="1" fill="#1B2A4E"/>
  <rect x="19" y="25" width="1"  height="1" fill="#1B2A4E"/>
  <rect x="20" y="24" width="1"  height="1" fill="#1B2A4E"/>
  <rect x="21" y="20" width="1"  height="4" fill="#1B2A4E"/>
  <rect x="20" y="19" width="1"  height="1" fill="#1B2A4E"/>
  <rect x="14" y="19" width="6"  height="1" fill="#1B2A4E"/>
  <rect x="7"  y="19" width="6"  height="1" fill="#1B2A4E"/>

  <!-- Body fill (white, with subtle belly shading) -->
  <rect x="6"  y="18" width="15" height="1" fill="#ECF6FF"/>
  <rect x="5"  y="20" width="16" height="4" fill="#ECF6FF"/>
  <rect x="4"  y="24" width="17" height="2" fill="#ECF6FF"/>
  <rect x="6"  y="26" width="13" height="1" fill="#ECF6FF"/>
  <!-- Belly shading -->
  <rect x="14" y="22" width="6"  height="3" fill="#D8E5F5"/>

  <!-- ============================================================
       Front paw (one visible at the bottom-right of body)
       ============================================================ -->
  <rect x="15" y="25" width="3"  height="2" fill="#ECF6FF"/>
  <rect x="14" y="26" width="1"  height="1" fill="#1B2A4E"/>
  <rect x="18" y="25" width="1"  height="2" fill="#1B2A4E"/>
  <rect x="15" y="27" width="3"  height="1" fill="#1B2A4E"/>
  <rect x="16" y="26" width="1"  height="1" fill="#F4B6C0"/>

  <!-- Hind leg / haunch (visible at the bottom-left of body) -->
  <rect x="6"  y="25" width="3"  height="2" fill="#ECF6FF"/>
  <rect x="5"  y="26" width="1"  height="1" fill="#1B2A4E"/>
  <rect x="9"  y="25" width="1"  height="2" fill="#1B2A4E"/>
  <rect x="6"  y="27" width="3"  height="1" fill="#1B2A4E"/>
  <rect x="7"  y="26" width="1"  height="1" fill="#F4B6C0"/>

  <!-- ============================================================
       Tail (small white nub at the back-left)
       ============================================================ -->
  <rect x="2"  y="22" width="2"  height="2" fill="#ECF6FF"/>
  <rect x="2"  y="22" width="1"  height="1" fill="#1B2A4E"/>
  <rect x="3"  y="22" width="1"  height="1" fill="#1B2A4E"/>
  <rect x="2"  y="24" width="2"  height="1" fill="#1B2A4E"/>
</svg>
