<!--
  Kelp the walrus. Swap router  appears on swap routes between
  chains, hauling tokens across.

  Hand-authored pixel art, 32x32 logical grid.
  Palette: warm brown body #8B5C3A, paler belly #C19169, cream tusks
           #F1E5C3, dark eye #1B1F2A, navy outline #1B2A4E,
           pink whisker #F4B6C0.
-->
<svg xmlns="http://www.w3.org/2000/svg" viewBox="0 0 32 32" width="256" height="256" shape-rendering="crispEdges" role="img" aria-label="Kelp the walrus, swap router">
  <title>Kelp the walrus</title>
  <desc>Hauls tokens between chains via the swap router.</desc>

  <!-- Head outline -->
  <rect x="6"  y="6"  width="14" height="1" fill="#1B2A4E"/>
  <rect x="5"  y="7"  width="1"  height="9" fill="#1B2A4E"/>
  <rect x="20" y="7"  width="1"  height="9" fill="#1B2A4E"/>
  <rect x="6"  y="16" width="14" height="1" fill="#1B2A4E"/>

  <!-- Head fill -->
  <rect x="6"  y="7"  width="14" height="9" fill="#8B5C3A"/>

  <!-- Eyes -->
  <rect x="9"  y="10" width="1"  height="1" fill="#1B1F2A"/>
  <rect x="13" y="10" width="1"  height="1" fill="#1B1F2A"/>

  <!-- Snout (paler) -->
  <rect x="8"  y="12" width="8"  height="3" fill="#C19169"/>

  <!-- Whiskers -->
  <rect x="7"  y="13" width="1"  height="1" fill="#F4B6C0"/>
  <rect x="6"  y="14" width="1"  height="1" fill="#F4B6C0"/>
  <rect x="16" y="13" width="1"  height="1" fill="#F4B6C0"/>
  <rect x="17" y="14" width="1"  height="1" fill="#F4B6C0"/>

  <!-- Tusks -->
  <rect x="9"  y="15" width="2"  height="3" fill="#F1E5C3"/>
  <rect x="13" y="15" width="2"  height="3" fill="#F1E5C3"/>
  <rect x="9"  y="18" width="2"  height="1" fill="#1B2A4E"/>
  <rect x="13" y="18" width="2"  height="1" fill="#1B2A4E"/>

  <!-- Body (round, pinniped  wider than head) -->
  <rect x="4"  y="17" width="22" height="1" fill="#1B2A4E"/>
  <rect x="3"  y="18" width="1"  height="7" fill="#1B2A4E"/>
  <rect x="26" y="18" width="1"  height="7" fill="#1B2A4E"/>
  <rect x="4"  y="18" width="22" height="7" fill="#8B5C3A"/>
  <rect x="4"  y="25" width="22" height="1" fill="#1B2A4E"/>

  <!-- Belly -->
  <rect x="7"  y="20" width="16" height="4" fill="#C19169"/>

  <!-- Flippers (front pair) -->
  <rect x="3"  y="22" width="1"  height="3" fill="#8B5C3A"/>
  <rect x="2"  y="23" width="1"  height="2" fill="#8B5C3A"/>
  <rect x="26" y="22" width="1"  height="3" fill="#8B5C3A"/>
  <rect x="27" y="23" width="1"  height="2" fill="#8B5C3A"/>

  <!-- Tail (small) -->
  <rect x="14" y="26" width="4"  height="1" fill="#8B5C3A"/>
</svg>
