<!--
  Skipper the husky. Reconciliation runner  appears during reconcile
  passes, optionally with a slight motion-blur via CSS animation.

  Hand-authored pixel art, 32x32 logical grid.
  Palette: gray fur #8DA0BC, white belly #ECF6FF, blue eyes #50D2C2,
           dark mask #2A3958, navy outline #1B2A4E, pink tongue #F4B6C0.
-->
<svg xmlns="http://www.w3.org/2000/svg" viewBox="0 0 32 32" width="256" height="256" shape-rendering="crispEdges" role="img" aria-label="Skipper the husky, reconciliation runner">
  <title>Skipper the husky</title>
  <desc>Runs between camps delivering reconcile passes.</desc>

  <!-- Ears (pointed) -->
  <rect x="6"  y="3"  width="2"  height="3" fill="#2A3958"/>
  <rect x="6"  y="6"  width="3"  height="1" fill="#2A3958"/>
  <rect x="14" y="3"  width="2"  height="3" fill="#2A3958"/>
  <rect x="13" y="6"  width="3"  height="1" fill="#2A3958"/>

  <!-- Head -->
  <rect x="6"  y="7"  width="11" height="1" fill="#1B2A4E"/>
  <rect x="5"  y="8"  width="1"  height="6" fill="#1B2A4E"/>
  <rect x="17" y="8"  width="1"  height="6" fill="#1B2A4E"/>
  <rect x="6"  y="8"  width="11" height="6" fill="#8DA0BC"/>

  <!-- Mask (darker around eyes) -->
  <rect x="7"  y="9"  width="9"  height="2" fill="#2A3958"/>
  <rect x="7"  y="11" width="3"  height="1" fill="#2A3958"/>
  <rect x="13" y="11" width="3"  height="1" fill="#2A3958"/>

  <!-- Eyes (icy blue) -->
  <rect x="8"  y="10" width="2"  height="1" fill="#50D2C2"/>
  <rect x="13" y="10" width="2"  height="1" fill="#50D2C2"/>

  <!-- Snout (white) -->
  <rect x="9"  y="12" width="5"  height="2" fill="#ECF6FF"/>
  <rect x="11" y="12" width="1"  height="1" fill="#1B2A4E"/>
  <!-- Tongue -->
  <rect x="11" y="13" width="2"  height="1" fill="#F4B6C0"/>

  <!-- Body (running pose, leaning forward) -->
  <rect x="6"  y="14" width="18" height="1" fill="#1B2A4E"/>
  <rect x="6"  y="15" width="18" height="6" fill="#8DA0BC"/>
  <rect x="6"  y="21" width="18" height="1" fill="#1B2A4E"/>

  <!-- White belly -->
  <rect x="8"  y="17" width="14" height="3" fill="#ECF6FF"/>

  <!-- Front leg (lifted, mid-stride) -->
  <rect x="9"  y="22" width="2"  height="3" fill="#8DA0BC"/>
  <rect x="9"  y="25" width="2"  height="1" fill="#1B2A4E"/>

  <!-- Back leg (planted) -->
  <rect x="18" y="22" width="2"  height="4" fill="#8DA0BC"/>
  <rect x="18" y="26" width="2"  height="1" fill="#1B2A4E"/>

  <!-- Tail (curled up) -->
  <rect x="24" y="14" width="3"  height="1" fill="#8DA0BC"/>
  <rect x="26" y="13" width="2"  height="2" fill="#8DA0BC"/>
  <rect x="27" y="14" width="1"  height="3" fill="#ECF6FF"/>
</svg>
