<!--
  Tusk the Mammoth (v4). Side-profile mammoth facing left, mapped from
  the user's pixel-art reference. Iterated v3 to make the head, trunk
  and tusk readable: bigger head with clear eye, longer thicker trunk,
  prominent cream tusk curving down. Body has the lighter highlight
  along the back and darker shadow along the belly per the reference.
  Hand-authored pixel art on a 32x32 grid scaled to 256x256.
  Palette: highlight tan #C68250, main brown #A0623C, shadow brown
           #6B3F22, very dark outline #2B1810, tusk cream #F1E5C3,
           tusk highlight #FFFFFF, eye black #000000.
-->
<svg xmlns="http://www.w3.org/2000/svg" viewBox="0 0 32 32" width="256" height="256" shape-rendering="crispEdges" role="img" aria-label="Tusk the Mammoth, private strategy">
  <title>Tusk the Mammoth</title>
  <desc>Side-profile woolly mammoth facing left -- the operator's gitignored private strategies.</desc>

  <!-- ============================================================
       BODY - big rounded torso. Drawn first so head + trunk +
       tusk + legs layer on top.
       ============================================================ -->
  <!-- Top of body outline (the back) -->
  <rect x="11" y="9"  width="14" height="1" fill="#2B1810"/>
  <rect x="10" y="10" width="1"  height="1" fill="#2B1810"/>
  <rect x="25" y="10" width="1"  height="1" fill="#2B1810"/>
  <!-- Back outline curving down to tail -->
  <rect x="26" y="11" width="1"  height="6" fill="#2B1810"/>
  <!-- Bottom of body -->
  <rect x="9"  y="11" width="1"  height="6" fill="#2B1810"/>
  <rect x="10" y="17" width="16" height="1" fill="#2B1810"/>

  <!-- Body fill (warm brown) -->
  <rect x="11" y="10" width="14" height="1" fill="#A0623C"/>
  <rect x="10" y="11" width="16" height="6" fill="#A0623C"/>
  <!-- Lighter highlight along the back -->
  <rect x="11" y="10" width="14" height="1" fill="#C68250"/>
  <rect x="11" y="11" width="14" height="1" fill="#C68250"/>
  <!-- Darker shadow along the belly -->
  <rect x="10" y="15" width="16" height="2" fill="#6B3F22"/>

  <!-- ============================================================
       HEAD - bigger and more pronounced than v3. Sits on the
       front-left of the body (overlapping it slightly), with a
       clear face and visible eye.
       ============================================================ -->
  <!-- Head dome (curves up + over from the body) -->
  <rect x="6"  y="11" width="4"  height="1" fill="#2B1810"/>
  <rect x="5"  y="12" width="1"  height="3" fill="#2B1810"/>
  <rect x="6"  y="15" width="1"  height="1" fill="#2B1810"/>
  <!-- Head fill -->
  <rect x="6"  y="12" width="4"  height="3" fill="#A0623C"/>
  <!-- Head highlight along the top -->
  <rect x="6"  y="12" width="4"  height="1" fill="#C68250"/>

  <!-- EYE (black dot, prominent) -->
  <rect x="8"  y="13" width="1"  height="1" fill="#000000"/>

  <!-- ============================================================
       TRUNK - thick curved trunk hanging down from the head, with
       a slight forward (left) curl at the tip. Drawn AFTER the
       head so it always layers cleanly.
       ============================================================ -->
  <!-- Trunk outline (left + right edges) -->
  <rect x="5"  y="15" width="1"  height="5" fill="#2B1810"/>
  <rect x="9"  y="15" width="1"  height="4" fill="#2B1810"/>
  <rect x="6"  y="20" width="1"  height="1" fill="#2B1810"/>
  <rect x="8"  y="19" width="1"  height="1" fill="#2B1810"/>
  <rect x="4"  y="20" width="1"  height="1" fill="#2B1810"/>
  <rect x="4"  y="21" width="2"  height="1" fill="#2B1810"/>
  <!-- Trunk fill -->
  <rect x="6"  y="15" width="3"  height="4" fill="#A0623C"/>
  <rect x="6"  y="19" width="2"  height="1" fill="#A0623C"/>
  <rect x="5"  y="20" width="1"  height="1" fill="#A0623C"/>
  <!-- Trunk highlight (catches the light along the right side) -->
  <rect x="8"  y="15" width="1"  height="4" fill="#C68250"/>
  <!-- Trunk shadow (darker on the left side) -->
  <rect x="6"  y="16" width="1"  height="3" fill="#6B3F22"/>

  <!-- ============================================================
       TUSK - single visible cream tusk curving down from beneath
       the trunk. Drawn LAST so it's always on top.
       ============================================================ -->
  <!-- Tusk outline -->
  <rect x="6"  y="18" width="1"  height="1" fill="#2B1810"/>
  <rect x="7"  y="19" width="1"  height="1" fill="#2B1810"/>
  <rect x="3"  y="22" width="1"  height="1" fill="#2B1810"/>
  <rect x="6"  y="22" width="1"  height="1" fill="#2B1810"/>
  <rect x="3"  y="23" width="4"  height="1" fill="#2B1810"/>
  <!-- Tusk fill (cream) -->
  <rect x="7"  y="20" width="1"  height="1" fill="#F1E5C3"/>
  <rect x="6"  y="21" width="2"  height="1" fill="#F1E5C3"/>
  <rect x="5"  y="22" width="2"  height="1" fill="#F1E5C3"/>
  <rect x="4"  y="22" width="1"  height="1" fill="#F1E5C3"/>
  <!-- Tusk shine -->
  <rect x="6"  y="21" width="1"  height="1" fill="#FFFFFF"/>

  <!-- ============================================================
       LEGS - four stubby brown legs at the bottom. Two front
       (closer, brighter) + two back (slightly inset, darker for
       depth perception).
       ============================================================ -->

  <!-- Front-left leg -->
  <rect x="10" y="18" width="1"  height="5" fill="#2B1810"/>
  <rect x="13" y="18" width="1"  height="5" fill="#2B1810"/>
  <rect x="11" y="18" width="2"  height="5" fill="#A0623C"/>
  <rect x="11" y="22" width="2"  height="1" fill="#2B1810"/>
  <rect x="10" y="23" width="4"  height="1" fill="#2B1810"/>
  <!-- Front-leg highlight -->
  <rect x="11" y="18" width="1"  height="3" fill="#C68250"/>

  <!-- Front-right leg -->
  <rect x="15" y="18" width="1"  height="5" fill="#2B1810"/>
  <rect x="18" y="18" width="1"  height="5" fill="#2B1810"/>
  <rect x="16" y="18" width="2"  height="5" fill="#A0623C"/>
  <rect x="16" y="22" width="2"  height="1" fill="#2B1810"/>
  <rect x="15" y="23" width="4"  height="1" fill="#2B1810"/>
  <rect x="16" y="18" width="1"  height="3" fill="#C68250"/>

  <!-- Back-left leg (slightly inset, darker shadow brown) -->
  <rect x="20" y="18" width="1"  height="5" fill="#2B1810"/>
  <rect x="22" y="18" width="1"  height="5" fill="#2B1810"/>
  <rect x="21" y="18" width="1"  height="5" fill="#6B3F22"/>
  <rect x="20" y="23" width="3"  height="1" fill="#2B1810"/>

  <!-- Back-right leg -->
  <rect x="23" y="18" width="1"  height="5" fill="#2B1810"/>
  <rect x="25" y="18" width="1"  height="5" fill="#2B1810"/>
  <rect x="24" y="18" width="1"  height="5" fill="#6B3F22"/>
  <rect x="23" y="23" width="3"  height="1" fill="#2B1810"/>

  <!-- ============================================================
       Small tail nub at the back-right
       ============================================================ -->
  <rect x="27" y="13" width="1"  height="2" fill="#2B1810"/>
  <rect x="28" y="14" width="1"  height="1" fill="#A0623C"/>
</svg>
