<!--
  Narwhal advisor (Elf-style). Big friendly white narwhal floating
  beside its assigned penguin. Single continuous whale silhouette
  with a long spiral tusk extending forward to the right. Horn glows
  via .glow / .glow-halo classes when the LLM is consulted.
  Hand-authored pixel art, 32x32 grid, scaled to 256x256.
  Palette: white #ECF6FF, brighter belly #FFFFFF, navy outline #1B2A4E,
           horn cream #FFFFFF + spiral shading #B5A6E0,
           pink cheek #F4B6C0, eye black #1B1F2A.
-->
<svg xmlns="http://www.w3.org/2000/svg" viewBox="0 0 32 32" width="256" height="256" shape-rendering="crispEdges" role="img" aria-label="Narwhal advisor">
  <title>Narwhal advisor</title>
  <desc>Floats beside its penguin trader; horn glows when the LLM is consulted.</desc>

  <!-- Glow halo around the horn (invisible by default; .glow-halo
       opacity is bumped to ~0.85 when the parent .actor has class
       "glowing"). -->
  <rect x="22" y="11" width="10" height="3" fill="#E0D3FF" class="glow-halo" opacity="0"/>

  <!-- =========================================================
       Body silhouette (single continuous shape).
       Navy outline first, then white fill on top.
       ========================================================= -->

  <!-- Top edge (curving up from tail to head) -->
  <rect x="9"  y="9"  width="14" height="1" fill="#1B2A4E"/>
  <rect x="7"  y="10" width="2"  height="1" fill="#1B2A4E"/>
  <rect x="23" y="10" width="1"  height="1" fill="#1B2A4E"/>
  <rect x="6"  y="11" width="1"  height="1" fill="#1B2A4E"/>
  <rect x="23" y="11" width="1"  height="3" fill="#1B2A4E"/>
  <!-- Tail/fluke spine on far left -->
  <rect x="2"  y="11" width="1"  height="1" fill="#1B2A4E"/>
  <rect x="3"  y="12" width="1"  height="1" fill="#1B2A4E"/>
  <rect x="4"  y="13" width="2"  height="1" fill="#1B2A4E"/>
  <rect x="5"  y="14" width="1"  height="3" fill="#1B2A4E"/>
  <rect x="2"  y="19" width="1"  height="1" fill="#1B2A4E"/>
  <rect x="3"  y="18" width="1"  height="1" fill="#1B2A4E"/>
  <rect x="4"  y="17" width="2"  height="1" fill="#1B2A4E"/>
  <!-- Bottom edge (mirror of top) -->
  <rect x="6"  y="17" width="2"  height="1" fill="#1B2A4E"/>
  <rect x="6"  y="18" width="1"  height="1" fill="#1B2A4E"/>
  <rect x="7"  y="19" width="2"  height="1" fill="#1B2A4E"/>
  <rect x="9"  y="20" width="14" height="1" fill="#1B2A4E"/>
  <rect x="22" y="19" width="1"  height="1" fill="#1B2A4E"/>

  <!-- =========================================================
       Body fill (white) - one continuous interior
       ========================================================= -->
  <rect x="9"  y="10" width="14" height="10" fill="#ECF6FF"/>
  <rect x="7"  y="11" width="16" height="8"  fill="#ECF6FF"/>
  <rect x="6"  y="12" width="17" height="6"  fill="#ECF6FF"/>
  <rect x="5"  y="13" width="18" height="4"  fill="#ECF6FF"/>

  <!-- Brighter belly highlight -->
  <rect x="9"  y="16" width="13" height="3" fill="#FFFFFF"/>
  <rect x="11" y="17" width="9"  height="2" fill="#FFFFFF"/>

  <!-- Top highlight (sleek look) -->
  <rect x="11" y="11" width="9"  height="1" fill="#FFFFFF"/>

  <!-- =========================================================
       Spiral tusk - extends from snout to right edge
       ========================================================= -->
  <!-- Tusk outline (slim, 1px tall) -->
  <rect x="24" y="11" width="7" height="1" fill="#1B2A4E"/>
  <rect x="24" y="13" width="7" height="1" fill="#1B2A4E"/>
  <!-- Tusk fill (cream/white) -->
  <rect x="24" y="12" width="7" height="1" fill="#FFFFFF" class="glow"/>
  <!-- Spiral marks (every 2px) -->
  <rect x="25" y="12" width="1" height="1" fill="#B5A6E0" class="glow"/>
  <rect x="27" y="12" width="1" height="1" fill="#B5A6E0" class="glow"/>
  <rect x="29" y="12" width="1" height="1" fill="#B5A6E0" class="glow"/>
  <!-- Tusk tip -->
  <rect x="31" y="12" width="1" height="1" fill="#FFFFFF" class="glow"/>

  <!-- =========================================================
       Face (right side of the body)
       ========================================================= -->
  <!-- Big friendly eye -->
  <rect x="18" y="13" width="2" height="2" fill="#1B1F2A"/>
  <rect x="18" y="13" width="1" height="1" fill="#FFFFFF"/>

  <!-- Pink cheek blush -->
  <rect x="20" y="15" width="2" height="1" fill="#F4B6C0"/>

  <!-- Smile (a couple of pixels suggesting an upturn) -->
  <rect x="20" y="16" width="1" height="1" fill="#1B2A4E"/>
  <rect x="21" y="17" width="1" height="1" fill="#1B2A4E"/>
  <rect x="22" y="17" width="1" height="1" fill="#1B2A4E"/>

  <!-- =========================================================
       Tail fluke (left edge, vertical spread)
       ========================================================= -->
  <rect x="3"  y="13" width="1" height="2" fill="#ECF6FF"/>
  <rect x="2"  y="12" width="1" height="2" fill="#ECF6FF"/>
  <rect x="3"  y="15" width="2" height="2" fill="#ECF6FF"/>
  <rect x="3"  y="17" width="1" height="1" fill="#ECF6FF"/>
  <rect x="2"  y="18" width="1" height="1" fill="#ECF6FF"/>

  <!-- Subtle dorsal nub -->
  <rect x="14" y="9"  width="3" height="1" fill="#ECF6FF"/>
  <rect x="15" y="8"  width="2" height="1" fill="#ECF6FF"/>
  <rect x="14" y="9"  width="3" height="1" fill="#1B2A4E"/>
</svg>
