<!--
  Frostbite the Whale (v4). Friendly cartoon blue whale facing right.
  Iterated v3 with a much more prominent vertical-spreading tail
  fluke to match the reference. Body is slightly more compact so
  the tail can take ~1/4 of the canvas like the reference.
  Hand-authored pixel art on a 32x32 grid scaled to 256x256.
  Palette: black outline #000000, main blue #2C8FCE, lighter blue
           #5DBBE8, very light highlight #87D0EE, white #FFFFFF,
           pupil black #000000.
-->
<svg xmlns="http://www.w3.org/2000/svg" viewBox="0 0 32 32" width="256" height="256" shape-rendering="crispEdges" role="img" aria-label="Frostbite the Whale, killswitch">
  <title>Frostbite the Whale</title>
  <desc>Friendly cartoon whale. Killswitch. Surfaces only when the expedition has to be recalled.</desc>

  <!-- ============================================================
       WATER SPOUT - separate cluster floating above the head
       ============================================================ -->
  <rect x="16" y="1"  width="2" height="1" fill="#5DBBE8"/>
  <rect x="22" y="1"  width="2" height="1" fill="#5DBBE8"/>
  <rect x="15" y="2"  width="2" height="1" fill="#5DBBE8"/>
  <rect x="23" y="2"  width="2" height="1" fill="#5DBBE8"/>
  <rect x="17" y="3"  width="2" height="1" fill="#5DBBE8"/>
  <rect x="21" y="3"  width="2" height="1" fill="#5DBBE8"/>
  <rect x="18" y="4"  width="4" height="1" fill="#5DBBE8"/>

  <!-- ============================================================
       BODY - shifted right slightly so the tail has room on the
       left. Body now occupies cols 9-29.
       ============================================================ -->
  <!-- Top edge -->
  <rect x="13" y="6"  width="15" height="1" fill="#000000"/>
  <rect x="11" y="7"  width="2"  height="1" fill="#000000"/>
  <rect x="28" y="7"  width="1"  height="1" fill="#000000"/>
  <rect x="10" y="8"  width="1"  height="1" fill="#000000"/>
  <rect x="29" y="8"  width="1"  height="1" fill="#000000"/>

  <!-- Right edge -->
  <rect x="30" y="9"  width="1"  height="11" fill="#000000"/>
  <rect x="29" y="20" width="1"  height="1" fill="#000000"/>
  <rect x="28" y="21" width="1"  height="1" fill="#000000"/>

  <!-- Bottom edge -->
  <rect x="11" y="22" width="17" height="1" fill="#000000"/>
  <rect x="10" y="21" width="1"  height="1" fill="#000000"/>

  <!-- Left edge curving in to the tail -->
  <rect x="9"  y="9"  width="1"  height="12" fill="#000000"/>
  <rect x="10" y="9"  width="1"  height="1" fill="#000000"/>

  <!-- Body fill (main blue) -->
  <rect x="13" y="7"  width="15" height="1" fill="#2C8FCE"/>
  <rect x="11" y="8"  width="18" height="1" fill="#2C8FCE"/>
  <rect x="10" y="9"  width="20" height="11" fill="#2C8FCE"/>
  <rect x="11" y="20" width="18" height="1" fill="#2C8FCE"/>
  <rect x="11" y="21" width="17" height="1" fill="#2C8FCE"/>

  <!-- Top highlight stripes -->
  <rect x="14" y="7"  width="12" height="1" fill="#5DBBE8"/>
  <rect x="13" y="8"  width="14" height="1" fill="#5DBBE8"/>
  <rect x="12" y="9"  width="16" height="1" fill="#87D0EE"/>
  <rect x="13" y="10" width="14" height="1" fill="#87D0EE"/>
  <rect x="15" y="11" width="9"  height="1" fill="#87D0EE"/>

  <!-- ============================================================
       EYE - big square white eye with black pupil
       ============================================================ -->
  <rect x="23" y="12" width="5"  height="5" fill="#000000"/>
  <rect x="24" y="13" width="3"  height="3" fill="#FFFFFF"/>
  <rect x="25" y="14" width="2"  height="2" fill="#000000"/>

  <!-- ============================================================
       SMILE - curved line under the eye
       ============================================================ -->
  <rect x="22" y="18" width="6"  height="1" fill="#000000"/>
  <rect x="23" y="19" width="4"  height="1" fill="#000000"/>

  <!-- ============================================================
       WHITE BELLY - prominent white stripe along the underside,
       wraps around the lower body
       ============================================================ -->
  <rect x="11" y="20" width="14" height="1" fill="#FFFFFF"/>
  <rect x="12" y="19" width="10" height="1" fill="#FFFFFF"/>
  <rect x="11" y="21" width="14" height="1" fill="#FFFFFF"/>

  <!-- ============================================================
       TAIL - big forked fluke on the left, occupying cols 0-9.
       The "wrist" at cols 7-9 connects to the body.
       ============================================================ -->

  <!-- Tail wrist (where the body narrows into the tail) -->
  <rect x="7"  y="13" width="3"  height="5" fill="#2C8FCE"/>
  <rect x="7"  y="13" width="1"  height="5" fill="#000000"/>
  <rect x="7"  y="12" width="3"  height="1" fill="#000000"/>
  <rect x="7"  y="18" width="3"  height="1" fill="#000000"/>
  <rect x="8"  y="13" width="2"  height="1" fill="#5DBBE8"/>

  <!-- TOP fluke lobe (large, vertical) -->
  <rect x="3"  y="9"  width="5"  height="1" fill="#000000"/>
  <rect x="2"  y="10" width="1"  height="3" fill="#000000"/>
  <rect x="8"  y="10" width="1"  height="2" fill="#000000"/>
  <rect x="3"  y="13" width="3"  height="1" fill="#000000"/>
  <rect x="6"  y="12" width="1"  height="1" fill="#000000"/>
  <rect x="6"  y="13" width="1"  height="1" fill="#000000"/>
  <!-- Top fluke fill -->
  <rect x="3"  y="10" width="5"  height="3" fill="#2C8FCE"/>
  <rect x="3"  y="10" width="5"  height="1" fill="#5DBBE8"/>
  <rect x="4"  y="11" width="3"  height="1" fill="#5DBBE8"/>

  <!-- BOTTOM fluke lobe (large, vertical) -->
  <rect x="3"  y="18" width="3"  height="1" fill="#000000"/>
  <rect x="6"  y="18" width="1"  height="1" fill="#000000"/>
  <rect x="2"  y="19" width="1"  height="3" fill="#000000"/>
  <rect x="8"  y="19" width="1"  height="2" fill="#000000"/>
  <rect x="3"  y="22" width="5"  height="1" fill="#000000"/>
  <!-- Bottom fluke fill -->
  <rect x="3"  y="19" width="5"  height="3" fill="#2C8FCE"/>
  <rect x="3"  y="19" width="5"  height="1" fill="#5DBBE8"/>
  <rect x="4"  y="20" width="3"  height="1" fill="#5DBBE8"/>
</svg>
